<mxfile host="app.diagrams.net" modified="2022-07-08T13:11:12.309Z" agent="5.0 (Windows NT 10.0; Win64; x64) AppleWebKit/537.36 (KHTML, like Gecko) Chrome/103.0.0.0 Safari/537.36" etag="-NFX_yu3_M1E-RGVvLXq" version="20.0.4" type="github">
  <diagram id="xVCv0VX3CQCgL1dRfT49" name="Page-1">
    <mxGraphModel dx="2447" dy="752" grid="1" gridSize="10" guides="1" tooltips="1" connect="1" arrows="1" fold="1" page="1" pageScale="1" pageWidth="850" pageHeight="1100" math="0" shadow="0">
      <root>
        <mxCell id="0" />
        <mxCell id="1" parent="0" />
        <mxCell id="z5GpH1GrF2K-q8i5t_sk-1" value="&lt;span style=&quot;font-size: 45px;&quot;&gt;1&lt;/span&gt;" style="rounded=0;whiteSpace=wrap;html=1;strokeWidth=5;" vertex="1" parent="1">
          <mxGeometry x="-160" y="275" width="60" height="60" as="geometry" />
        </mxCell>
        <mxCell id="z5GpH1GrF2K-q8i5t_sk-2" value="&lt;span style=&quot;font-size: 45px;&quot;&gt;1&lt;/span&gt;" style="rounded=0;whiteSpace=wrap;html=1;strokeWidth=5;" vertex="1" parent="1">
          <mxGeometry x="-100" y="275" width="60" height="60" as="geometry" />
        </mxCell>
        <mxCell id="z5GpH1GrF2K-q8i5t_sk-3" value="&lt;span style=&quot;font-size: 45px;&quot;&gt;0&lt;/span&gt;" style="rounded=0;whiteSpace=wrap;html=1;strokeWidth=5;" vertex="1" parent="1">
          <mxGeometry x="-40" y="275" width="60" height="60" as="geometry" />
        </mxCell>
        <mxCell id="z5GpH1GrF2K-q8i5t_sk-4" value="" style="rounded=0;whiteSpace=wrap;html=1;strokeWidth=5;" vertex="1" parent="1">
          <mxGeometry x="20" y="275" width="60" height="60" as="geometry" />
        </mxCell>
        <mxCell id="z5GpH1GrF2K-q8i5t_sk-5" value="" style="rounded=0;whiteSpace=wrap;html=1;strokeWidth=5;" vertex="1" parent="1">
          <mxGeometry x="80" y="275" width="60" height="60" as="geometry" />
        </mxCell>
        <mxCell id="z5GpH1GrF2K-q8i5t_sk-6" value="" style="rounded=0;whiteSpace=wrap;html=1;strokeWidth=5;" vertex="1" parent="1">
          <mxGeometry x="140" y="275" width="60" height="60" as="geometry" />
        </mxCell>
        <mxCell id="z5GpH1GrF2K-q8i5t_sk-7" value="&lt;span style=&quot;font-size: 45px;&quot;&gt;1&lt;/span&gt;" style="rounded=0;whiteSpace=wrap;html=1;strokeWidth=5;" vertex="1" parent="1">
          <mxGeometry x="200" y="275" width="60" height="60" as="geometry" />
        </mxCell>
        <mxCell id="z5GpH1GrF2K-q8i5t_sk-8" value="&lt;font style=&quot;font-size: 45px;&quot;&gt;Sequence No 0 1 5&amp;nbsp; 62 63&lt;br&gt;Starting Seq Number 0&amp;nbsp;&lt;br&gt;Bitmap = zeros(1,bitmapSize)&lt;br&gt;&lt;/font&gt;" style="text;html=1;align=center;verticalAlign=middle;resizable=0;points=[];autosize=1;strokeColor=none;fillColor=none;" vertex="1" parent="1">
          <mxGeometry x="-455" y="15" width="610" height="180" as="geometry" />
        </mxCell>
        <mxCell id="z5GpH1GrF2K-q8i5t_sk-9" value="0" style="text;html=1;align=center;verticalAlign=middle;resizable=0;points=[];autosize=1;strokeColor=none;fillColor=none;fontSize=45;" vertex="1" parent="1">
          <mxGeometry x="-155" y="335" width="50" height="70" as="geometry" />
        </mxCell>
        <mxCell id="z5GpH1GrF2K-q8i5t_sk-13" value="1" style="text;html=1;align=center;verticalAlign=middle;resizable=0;points=[];autosize=1;strokeColor=none;fillColor=none;fontSize=45;" vertex="1" parent="1">
          <mxGeometry x="-95" y="335" width="50" height="70" as="geometry" />
        </mxCell>
        <mxCell id="z5GpH1GrF2K-q8i5t_sk-14" value="2" style="text;html=1;align=center;verticalAlign=middle;resizable=0;points=[];autosize=1;strokeColor=none;fillColor=none;fontSize=45;" vertex="1" parent="1">
          <mxGeometry x="-35" y="335" width="50" height="70" as="geometry" />
        </mxCell>
        <mxCell id="z5GpH1GrF2K-q8i5t_sk-15" value=".............." style="text;html=1;align=center;verticalAlign=middle;resizable=0;points=[];autosize=1;strokeColor=none;fillColor=none;fontSize=45;" vertex="1" parent="1">
          <mxGeometry x="15" y="325" width="200" height="70" as="geometry" />
        </mxCell>
        <mxCell id="z5GpH1GrF2K-q8i5t_sk-16" value="&lt;span style=&quot;font-size: 45px;&quot;&gt;1&lt;/span&gt;" style="rounded=0;whiteSpace=wrap;html=1;strokeWidth=5;" vertex="1" parent="1">
          <mxGeometry x="260" y="275" width="60" height="60" as="geometry" />
        </mxCell>
        <mxCell id="z5GpH1GrF2K-q8i5t_sk-18" value="62" style="text;html=1;align=center;verticalAlign=middle;resizable=0;points=[];autosize=1;strokeColor=none;fillColor=none;fontSize=45;" vertex="1" parent="1">
          <mxGeometry x="195" y="335" width="70" height="70" as="geometry" />
        </mxCell>
        <mxCell id="z5GpH1GrF2K-q8i5t_sk-19" value="63" style="text;html=1;align=center;verticalAlign=middle;resizable=0;points=[];autosize=1;strokeColor=none;fillColor=none;fontSize=45;" vertex="1" parent="1">
          <mxGeometry x="255" y="335" width="70" height="70" as="geometry" />
        </mxCell>
        <mxCell id="z5GpH1GrF2K-q8i5t_sk-20" value="Updated Bitmap =" style="text;html=1;align=center;verticalAlign=middle;resizable=0;points=[];autosize=1;strokeColor=none;fillColor=none;fontSize=45;" vertex="1" parent="1">
          <mxGeometry x="-590" y="270" width="380" height="70" as="geometry" />
        </mxCell>
        <mxCell id="z5GpH1GrF2K-q8i5t_sk-21" value="&lt;font style=&quot;font-size: 45px;&quot;&gt;Sequence No 62 63 64 65&lt;br&gt;Starting Seq Number 0&amp;nbsp;&lt;br&gt;Bitmap = zeros(1,bitmapSize)&lt;br&gt;&lt;/font&gt;" style="text;html=1;align=center;verticalAlign=middle;resizable=0;points=[];autosize=1;strokeColor=none;fillColor=none;" vertex="1" parent="1">
          <mxGeometry x="-470" y="520" width="610" height="180" as="geometry" />
        </mxCell>
        <mxCell id="z5GpH1GrF2K-q8i5t_sk-22" value="Updated SSN = 0" style="text;html=1;align=center;verticalAlign=middle;resizable=0;points=[];autosize=1;strokeColor=none;fillColor=none;fontSize=45;" vertex="1" parent="1">
          <mxGeometry x="-580" y="395" width="370" height="70" as="geometry" />
        </mxCell>
        <mxCell id="z5GpH1GrF2K-q8i5t_sk-39" value="&lt;span style=&quot;font-size: 45px;&quot;&gt;1&lt;/span&gt;" style="rounded=0;whiteSpace=wrap;html=1;strokeWidth=5;" vertex="1" parent="1">
          <mxGeometry x="-140" y="745" width="60" height="60" as="geometry" />
        </mxCell>
        <mxCell id="z5GpH1GrF2K-q8i5t_sk-40" value="&lt;span style=&quot;font-size: 45px;&quot;&gt;1&lt;/span&gt;" style="rounded=0;whiteSpace=wrap;html=1;strokeWidth=5;" vertex="1" parent="1">
          <mxGeometry x="-80" y="745" width="60" height="60" as="geometry" />
        </mxCell>
        <mxCell id="z5GpH1GrF2K-q8i5t_sk-41" value="&lt;span style=&quot;font-size: 45px;&quot;&gt;0&lt;/span&gt;" style="rounded=0;whiteSpace=wrap;html=1;strokeWidth=5;" vertex="1" parent="1">
          <mxGeometry x="-20" y="745" width="60" height="60" as="geometry" />
        </mxCell>
        <mxCell id="z5GpH1GrF2K-q8i5t_sk-42" value="" style="rounded=0;whiteSpace=wrap;html=1;strokeWidth=5;" vertex="1" parent="1">
          <mxGeometry x="40" y="745" width="60" height="60" as="geometry" />
        </mxCell>
        <mxCell id="z5GpH1GrF2K-q8i5t_sk-43" value="" style="rounded=0;whiteSpace=wrap;html=1;strokeWidth=5;" vertex="1" parent="1">
          <mxGeometry x="100" y="745" width="60" height="60" as="geometry" />
        </mxCell>
        <mxCell id="z5GpH1GrF2K-q8i5t_sk-44" value="&lt;span style=&quot;font-size: 45px;&quot;&gt;1&lt;/span&gt;" style="rounded=0;whiteSpace=wrap;html=1;strokeWidth=5;" vertex="1" parent="1">
          <mxGeometry x="160" y="745" width="60" height="60" as="geometry" />
        </mxCell>
        <mxCell id="z5GpH1GrF2K-q8i5t_sk-45" value="&lt;span style=&quot;font-size: 45px;&quot;&gt;1&lt;/span&gt;" style="rounded=0;whiteSpace=wrap;html=1;strokeWidth=5;" vertex="1" parent="1">
          <mxGeometry x="220" y="745" width="60" height="60" as="geometry" />
        </mxCell>
        <mxCell id="z5GpH1GrF2K-q8i5t_sk-46" value="2" style="text;html=1;align=center;verticalAlign=middle;resizable=0;points=[];autosize=1;strokeColor=none;fillColor=none;fontSize=45;" vertex="1" parent="1">
          <mxGeometry x="-135" y="805" width="50" height="70" as="geometry" />
        </mxCell>
        <mxCell id="z5GpH1GrF2K-q8i5t_sk-47" value="3" style="text;html=1;align=center;verticalAlign=middle;resizable=0;points=[];autosize=1;strokeColor=none;fillColor=none;fontSize=45;" vertex="1" parent="1">
          <mxGeometry x="-75" y="805" width="50" height="70" as="geometry" />
        </mxCell>
        <mxCell id="z5GpH1GrF2K-q8i5t_sk-48" value="4" style="text;html=1;align=center;verticalAlign=middle;resizable=0;points=[];autosize=1;strokeColor=none;fillColor=none;fontSize=45;" vertex="1" parent="1">
          <mxGeometry x="-15" y="805" width="50" height="70" as="geometry" />
        </mxCell>
        <mxCell id="z5GpH1GrF2K-q8i5t_sk-49" value=".........." style="text;html=1;align=center;verticalAlign=middle;resizable=0;points=[];autosize=1;strokeColor=none;fillColor=none;fontSize=45;" vertex="1" parent="1">
          <mxGeometry x="40" y="795" width="150" height="70" as="geometry" />
        </mxCell>
        <mxCell id="z5GpH1GrF2K-q8i5t_sk-50" value="&lt;span style=&quot;font-size: 45px;&quot;&gt;1&lt;/span&gt;" style="rounded=0;whiteSpace=wrap;html=1;strokeWidth=5;" vertex="1" parent="1">
          <mxGeometry x="280" y="745" width="60" height="60" as="geometry" />
        </mxCell>
        <mxCell id="z5GpH1GrF2K-q8i5t_sk-51" value="64" style="text;html=1;align=center;verticalAlign=middle;resizable=0;points=[];autosize=1;strokeColor=none;fillColor=none;fontSize=45;" vertex="1" parent="1">
          <mxGeometry x="215" y="805" width="70" height="70" as="geometry" />
        </mxCell>
        <mxCell id="z5GpH1GrF2K-q8i5t_sk-52" value="65" style="text;html=1;align=center;verticalAlign=middle;resizable=0;points=[];autosize=1;strokeColor=none;fillColor=none;fontSize=45;" vertex="1" parent="1">
          <mxGeometry x="275" y="805" width="70" height="70" as="geometry" />
        </mxCell>
        <mxCell id="z5GpH1GrF2K-q8i5t_sk-53" value="Updated Bitmap =" style="text;html=1;align=center;verticalAlign=middle;resizable=0;points=[];autosize=1;strokeColor=none;fillColor=none;fontSize=45;" vertex="1" parent="1">
          <mxGeometry x="-570" y="740" width="380" height="70" as="geometry" />
        </mxCell>
        <mxCell id="z5GpH1GrF2K-q8i5t_sk-54" value="Updated SSN = 2" style="text;html=1;align=center;verticalAlign=middle;resizable=0;points=[];autosize=1;strokeColor=none;fillColor=none;fontSize=45;" vertex="1" parent="1">
          <mxGeometry x="-560" y="865" width="370" height="70" as="geometry" />
        </mxCell>
        <mxCell id="z5GpH1GrF2K-q8i5t_sk-55" value="63" style="text;html=1;align=center;verticalAlign=middle;resizable=0;points=[];autosize=1;strokeColor=none;fillColor=none;fontSize=45;" vertex="1" parent="1">
          <mxGeometry x="155" y="805" width="70" height="70" as="geometry" />
        </mxCell>
      </root>
    </mxGraphModel>
  </diagram>
</mxfile>
